<svg width="470" height="473" viewBox="0 0 470 473" fill="none" xmlns="http://www.w3.org/2000/svg">
<path d="M236.403 470.504L32.057 194.793L435.771 191.173L236.403 470.504Z" fill="#F2A680"/>
<path d="M263.177 121.78C263.177 188.688 205.19 242.928 133.66 242.928C62.1295 242.928 4.14258 188.688 4.14258 121.78C4.14258 54.8724 62.1295 0.632812 133.66 0.632812C205.19 0.632812 263.177 54.8724 263.177 121.78Z" fill="#F2A680"/>
<ellipse cx="333.847" cy="122.2" rx="122.614" ry="121.147" fill="#F2A680"/>
<path fill-rule="evenodd" clip-rule="evenodd" d="M154.972 105.565L152.808 128.468C167.531 129.451 182.021 134.804 192.223 144.148L216.326 129.181L218.872 130.768L194.213 146.08C200.18 152.213 204.387 159.876 205.865 168.978L202.904 169.453C201.506 160.841 197.426 153.542 191.592 147.707L191.373 147.843L188.827 146.256L189.564 145.799C179.633 137.006 165.488 131.991 150.901 131.367C134.414 130.662 117.788 135.595 106.577 146.758L107.454 147.302L104.909 148.89L104.69 148.755C100.05 153.974 96.5156 160.402 94.558 168.088L91.6508 167.343C93.6939 159.32 97.3357 152.61 102.092 147.143L77.0171 131.589L79.5623 130.001L103.949 145.128C109.739 139.196 116.924 134.899 124.765 132.133L112.582 110.01L115.52 109.406L127.537 131.227C134.682 129.07 142.283 128.129 149.812 128.328L151.975 105.43L154.972 105.565ZM176.576 133.17L195.699 112.103L192.874 111.094L173.75 132.161L176.576 133.17Z" fill="black"/>
<path fill-rule="evenodd" clip-rule="evenodd" d="M320.236 107.631L318.027 128.684C330.229 129.491 342.192 133.033 351.73 139.1C353.801 140.418 355.761 141.857 357.585 143.414L381.76 129.723L384.356 131.226L359.606 145.243C365.541 150.938 369.741 158.041 371.205 166.451L368.249 166.959C366.861 158.98 362.771 152.214 356.877 146.789L356.705 146.886L354.108 145.383L354.799 144.992C353.33 143.797 351.767 142.676 350.124 141.631C340.63 135.591 328.482 132.125 316.095 131.581C299.525 130.854 282.865 135.333 271.6 145.525L272.427 146.002L269.82 147.485L269.659 147.393C264.97 152.197 261.398 158.123 259.418 165.215L256.529 164.402C258.589 157.024 262.227 150.86 266.965 145.84L241.845 131.362L244.452 129.878L268.861 143.946C274.687 138.458 281.915 134.501 289.793 131.968L277.657 111.547L280.607 111.002L292.575 131.14C299.786 129.159 307.452 128.319 315.03 128.541L317.239 107.493L320.236 107.631ZM341.874 133.252L361.124 113.863L358.278 112.914L339.028 132.303L341.874 133.252Z" fill="black"/>
<path fill-rule="evenodd" clip-rule="evenodd" d="M143.316 291.947C140.136 300.406 166.192 319.242 188.51 326.576C189.95 327.229 191.381 327.833 192.794 328.378C205.319 333.217 222.306 335.935 240.019 335.935C257.732 335.935 278.343 333.217 290.868 328.378C306.547 322.322 331.484 301.36 331.484 294.517L330.922 294.613C330.952 294.376 330.966 294.143 330.966 293.913C335.626 293.913 297.716 284.335 274.793 284.335C257.562 284.335 242.783 289.313 236.507 296.4C226.142 287.857 208.96 279.934 194.2 279.934C179.706 279.934 154.401 288.076 143.316 291.947ZM142.746 292.147C142.932 292.082 143.122 292.015 143.316 291.947L143.324 291.928C143.125 292.003 142.933 292.076 142.746 292.147ZM137.866 293.937C138.039 293.851 139.839 293.169 142.746 292.147C139.147 293.512 137.693 294.023 137.866 293.937Z" fill="#F21414"/>
<ellipse cx="139.354" cy="234.298" rx="25.1096" ry="27.7845" fill="#F8CEB9"/>
<ellipse cx="321.075" cy="234.298" rx="25.1096" ry="27.7845" fill="#F8CEB9"/>
</svg>
